<?xml version="1.0" encoding="UTF-8" standalone="no"?>
<!-- Created with Inkscape (http://www.inkscape.org/) -->

<svg
   xmlns:dc="http://purl.org/dc/elements/1.1/"
   xmlns:cc="http://creativecommons.org/ns#"
   xmlns:rdf="http://www.w3.org/1999/02/22-rdf-syntax-ns#"
   xmlns:svg="http://www.w3.org/2000/svg"
   xmlns="http://www.w3.org/2000/svg"
   xmlns:sodipodi="http://sodipodi.sourceforge.net/DTD/sodipodi-0.dtd"
   xmlns:inkscape="http://www.inkscape.org/namespaces/inkscape"
   width="107.6024mm"
   height="11.071795mm"
   viewBox="0 0 107.6024 11.071795"
   version="1.1"
   id="svg8"
   inkscape:version="0.92.5 (2060ec1f9f, 2020-04-08)"
   sodipodi:docname="logo.svg"
   inkscape:export-filename="/home/kris/Coding/templates-tmp-talk/images/logo.png"
   inkscape:export-xdpi="96"
   inkscape:export-ydpi="96">
  <defs
     id="defs2" />
  <sodipodi:namedview
     id="base"
     pagecolor="#ffffff"
     bordercolor="#666666"
     borderopacity="1.0"
     inkscape:pageopacity="0.0"
     inkscape:pageshadow="2"
     inkscape:zoom="3.3711492"
     inkscape:cx="203.34312"
     inkscape:cy="20.923078"
     inkscape:document-units="mm"
     inkscape:current-layer="text3715"
     showgrid="false"
     fit-margin-top="0"
     fit-margin-left="0"
     fit-margin-right="0"
     fit-margin-bottom="0"
     inkscape:window-width="1920"
     inkscape:window-height="1016"
     inkscape:window-x="0"
     inkscape:window-y="27"
     inkscape:window-maximized="1" />
  <metadata
     id="metadata5">
    <rdf:RDF>
      <cc:Work
         rdf:about="">
        <dc:format>image/svg+xml</dc:format>
        <dc:type
           rdf:resource="http://purl.org/dc/dcmitype/StillImage" />
        <dc:title />
      </cc:Work>
    </rdf:RDF>
  </metadata>
  <g
     inkscape:label="Layer 1"
     inkscape:groupmode="layer"
     id="layer1"
     transform="translate(-54.270057,-163.73535)">
    <g
       aria-label="Kris van(Rens&lt; &gt;);"
       style="font-style:normal;font-variant:normal;font-weight:500;font-stretch:normal;font-size:10.58333302px;line-height:1.25;font-family:'FiraCode Nerd Font';-inkscape-font-specification:'FiraCode Nerd Font, Medium';font-variant-ligatures:normal;font-variant-caps:normal;font-variant-numeric:normal;font-feature-settings:normal;text-align:start;letter-spacing:0px;word-spacing:0px;writing-mode:lr-tb;text-anchor:start;fill:#aa0000;fill-opacity:1;stroke:none;stroke-width:0.26458332"
       id="text3715">
      <path
         d="m 55.529202,172.8533 v -7.48974 h -1.259145 v 7.48974 z m 0.05427,-3.99996 2.686538,3.99996 h 1.508803 l -2.827649,-4.08679 2.62141,-3.40295 h -1.383974 z"
         style="fill:#bf5753;fill-opacity:1"
         id="path828" />
      <path
         d="m 64.864229,166.97548 c -0.993205,0 -1.590213,0.5156 -2.018974,1.47624 l -0.222521,-1.3297 h -1.769317 v 0.86295 h 0.84124 v 3.99996 h -0.84124 v 0.86837 h 3.212992 v -0.86837 h -1.156026 v -2.12753 c 0.341923,-1.12346 0.933504,-1.76388 1.74218,-1.79102 v 1.16688 h 0.868376 l 0.206239,-2.11124 c -0.26594,-0.0868 -0.521026,-0.14654 -0.862949,-0.14654 z"
         style="fill:#bf5753;fill-opacity:1"
         id="path830" />
      <path
         d="m 69.596863,164.31608 c -0.466752,0 -0.792393,0.33107 -0.792393,0.75983 0,0.43961 0.325641,0.77068 0.792393,0.77068 0.477607,0 0.797821,-0.33107 0.797821,-0.77068 0,-0.42876 -0.320214,-0.75983 -0.797821,-0.75983 z m 0.846667,2.80594 h -2.876496 v 0.89009 h 1.660769 v 3.95111 h -1.715042 v 0.89008 h 4.488418 v -0.89008 H 70.44353 Z"
         style="fill:#bf5753;fill-opacity:1"
         id="path832" />
      <path
         d="m 75.908855,172.06634 c -0.672991,0 -1.264572,-0.24966 -1.709615,-0.61329 l -0.645855,0.73812 c 0.526453,0.46132 1.29171,0.80867 2.35547,0.80867 1.318847,0 2.529146,-0.54273 2.529146,-1.78017 0,-1.0909 -0.732693,-1.47624 -1.850727,-1.7856 -1.145171,-0.32021 -1.459957,-0.47761 -1.459957,-0.90637 0,-0.38534 0.309359,-0.635 1.08547,-0.635 0.667564,0 1.18859,0.21167 1.633632,0.50475 l 0.510171,-0.76526 c -0.510171,-0.37449 -1.215726,-0.66214 -2.176367,-0.66214 -1.411111,0 -2.290342,0.66214 -2.290342,1.64449 0,1.00406 0.748974,1.40569 1.883291,1.69333 1.188589,0.30936 1.378547,0.53189 1.378547,0.99321 0,0.47761 -0.483035,0.76526 -1.242864,0.76526 z"
         style="fill:#bf5753;fill-opacity:1"
         id="path834" />
      <path
         d="m 91.740407,167.1383 h -0.944359 l -1.633632,4.88462 -1.655342,-4.88462 h -0.966068 l 2.062393,5.715 h 1.058333 z"
         style="font-style:normal;font-variant:normal;font-weight:normal;font-stretch:normal;font-size:10.58333302px;font-family:'FiraCode Nerd Font';-inkscape-font-specification:'FiraCode Nerd Font,  weight=453';font-variant-ligatures:normal;font-variant-caps:normal;font-variant-numeric:normal;font-feature-settings:normal;text-align:start;writing-mode:lr-tb;text-anchor:start;fill:#1a1a1a"
         id="path836" />
      <path
         d="m 97.580218,171.60501 v -2.74081 c 0,-1.12889 -0.71641,-1.8453 -2.138376,-1.8453 -0.55359,0 -1.172308,0.0977 -1.867008,0.35821 l 0.238803,0.68927 c 0.591581,-0.20624 1.107179,-0.29308 1.487094,-0.29308 0.852094,0 1.362265,0.30936 1.362265,1.13432 v 0.47761 h -0.841239 c -1.736753,0 -2.681111,0.65128 -2.681111,1.82901 0,1.06376 0.700128,1.76389 1.845299,1.76389 0.738119,0 1.383974,-0.27137 1.791025,-0.80325 0.162821,0.51017 0.55359,0.73812 1.047479,0.80325 l 0.222521,-0.64043 c -0.320213,-0.0977 -0.466752,-0.27136 -0.466752,-0.73269 z m -2.360897,0.67842 c -0.743547,0 -1.101752,-0.36906 -1.101752,-1.08004 0,-0.73269 0.461324,-1.19945 1.72047,-1.19945 h 0.824957 v 1.47082 c -0.341923,0.51017 -0.879231,0.80867 -1.443675,0.80867 z"
         style="font-style:normal;font-variant:normal;font-weight:normal;font-stretch:normal;font-size:10.58333302px;font-family:'FiraCode Nerd Font';-inkscape-font-specification:'FiraCode Nerd Font,  weight=453';font-variant-ligatures:normal;font-variant-caps:normal;font-variant-numeric:normal;font-feature-settings:normal;text-align:start;writing-mode:lr-tb;text-anchor:start;fill:#1a1a1a"
         id="path838" />
      <path
         d="m 100.0008,172.8533 h 0.9118 v -4.16278 c 0.2985,-0.44504 0.86837,-0.95521 1.54136,-0.95521 0.86295,0 0.97693,0.47218 0.97693,1.63906 v 3.47893 h 0.91179 v -4.15192 c 0,-1.05291 -0.48303,-1.68248 -1.60649,-1.68248 -0.66214,0 -1.42197,0.32564 -1.88872,0.9118 l -0.0706,-0.7924 h -0.77611 z"
         style="font-style:normal;font-variant:normal;font-weight:normal;font-stretch:normal;font-size:10.58333302px;font-family:'FiraCode Nerd Font';-inkscape-font-specification:'FiraCode Nerd Font,  weight=453';font-variant-ligatures:normal;font-variant-caps:normal;font-variant-numeric:normal;font-feature-settings:normal;text-align:start;writing-mode:lr-tb;text-anchor:start;fill:#1a1a1a"
         id="path840" />
      <path
         d="m 107.72933,169.05416 c 0,-2.27406 0.75983,-3.43009 2.32291,-4.81949 l -0.47761,-0.49932 c -1.76389,1.43825 -2.80051,2.84394 -2.80051,5.31881 0,2.47487 1.03662,3.88055 2.80051,5.3188 l 0.47761,-0.49932 c -1.55222,-1.37312 -2.32291,-2.55628 -2.32291,-4.81948 z"
         style="font-style:normal;font-variant:normal;font-weight:normal;font-stretch:normal;font-size:10.58333302px;font-family:'FiraCode Nerd Font';-inkscape-font-specification:'FiraCode Nerd Font,  weight=453';font-variant-ligatures:normal;font-variant-caps:normal;font-variant-numeric:normal;font-feature-settings:normal;text-align:start;writing-mode:lr-tb;text-anchor:start;fill:#1a1a1a"
         id="path842" />
      <path
         d="m 117.86761,167.52907 c 0,-1.4491 -0.99863,-2.16551 -2.91991,-2.16551 h -2.08953 v 7.48974 h 1.25914 v -3.08273 h 0.81953 l 1.88329,3.08273 h 1.46539 l -2.1221,-3.26184 c 0.95522,-0.28222 1.70419,-0.95521 1.70419,-2.06239 z m -1.31885,0 c 0,0.94436 -0.54273,1.31885 -1.50337,1.31885 h -0.92808 v -2.55086 h 0.90094 c 1.0312,0 1.53051,0.36364 1.53051,1.23201 z"
         style="font-style:normal;font-variant:normal;font-weight:500;font-stretch:normal;font-size:10.58333302px;font-family:'FiraCode Nerd Font';-inkscape-font-specification:'FiraCode Nerd Font, Medium';font-variant-ligatures:normal;font-variant-caps:normal;font-variant-numeric:normal;font-feature-settings:normal;text-align:start;writing-mode:lr-tb;text-anchor:start;fill:#528b81;fill-opacity:1"
         id="path844" />
      <path
         d="m 120.42388,170.37843 h 3.79914 c 0.0163,-0.14654 0.0271,-0.34735 0.0271,-0.54273 0,-1.78018 -0.94979,-2.86565 -2.46944,-2.86565 -1.62821,0 -2.61599,1.30257 -2.61599,3.02304 0,1.78017 0.97693,3.00675 2.76252,3.00675 0.81411,0 1.55765,-0.28222 2.08953,-0.71641 l -0.52645,-0.72726 c -0.48303,0.32021 -0.94436,0.49931 -1.50338,0.49931 -0.83038,0 -1.49252,-0.49931 -1.56307,-1.67705 z m 1.36769,-2.50744 c 0.80868,0 1.25915,0.60244 1.28085,1.67706 h -2.65397 c 0.076,-1.14518 0.60786,-1.67706 1.37312,-1.67706 z"
         style="font-style:normal;font-variant:normal;font-weight:500;font-stretch:normal;font-size:10.58333302px;font-family:'FiraCode Nerd Font';-inkscape-font-specification:'FiraCode Nerd Font, Medium';font-variant-ligatures:normal;font-variant-caps:normal;font-variant-numeric:normal;font-feature-settings:normal;text-align:start;writing-mode:lr-tb;text-anchor:start;fill:#528b81;fill-opacity:1"
         id="path846" />
      <path
         d="m 125.92719,172.8533 h 1.21573 v -4.11393 c 0.30936,-0.43419 0.78154,-0.84124 1.34055,-0.84124 0.69471,0 0.81953,0.38534 0.81953,1.37855 v 3.57662 h 1.21573 v -4.17906 c 0,-1.07461 -0.53188,-1.70419 -1.60107,-1.70419 -0.68927,0 -1.37312,0.31479 -1.85072,0.89552 l -0.0923,-0.74355 h -1.04748 z"
         style="font-style:normal;font-variant:normal;font-weight:500;font-stretch:normal;font-size:10.58333302px;font-family:'FiraCode Nerd Font';-inkscape-font-specification:'FiraCode Nerd Font, Medium';font-variant-ligatures:normal;font-variant-caps:normal;font-variant-numeric:normal;font-feature-settings:normal;text-align:start;writing-mode:lr-tb;text-anchor:start;fill:#528b81;fill-opacity:1"
         id="path848" />
      <path
         d="m 134.5241,172.06634 c -0.67299,0 -1.26458,-0.24966 -1.70962,-0.61329 l -0.64585,0.73812 c 0.52645,0.46132 1.29171,0.80867 2.35547,0.80867 1.31884,0 2.52914,-0.54273 2.52914,-1.78017 0,-1.0909 -0.73269,-1.47624 -1.85072,-1.7856 -1.14517,-0.32021 -1.45996,-0.47761 -1.45996,-0.90637 0,-0.38534 0.30936,-0.635 1.08547,-0.635 0.66756,0 1.18859,0.21167 1.63363,0.50475 l 0.51017,-0.76526 c -0.51017,-0.37449 -1.21572,-0.66214 -2.17637,-0.66214 -1.41111,0 -2.29034,0.66214 -2.29034,1.64449 0,1.00406 0.74898,1.40569 1.88329,1.69333 1.18859,0.30936 1.37855,0.53189 1.37855,0.99321 0,0.47761 -0.48303,0.76526 -1.24286,0.76526 z"
         style="font-style:normal;font-variant:normal;font-weight:500;font-stretch:normal;font-size:10.58333302px;font-family:'FiraCode Nerd Font';-inkscape-font-specification:'FiraCode Nerd Font, Medium';font-variant-ligatures:normal;font-variant-caps:normal;font-variant-numeric:normal;font-feature-settings:normal;text-align:start;writing-mode:lr-tb;text-anchor:start;fill:#528b81;fill-opacity:1"
         id="path850" />
      <path
         d="m 143.06674,166.32963 -4.20077,2.5997 v 1.04205 l 4.16277,2.59427 0.59701,-0.8738 -3.7123,-2.2415 3.7123,-2.24149 z"
         style="fill:#4c9084;fill-opacity:1"
         id="path852" />
      <path
         d="m 146.16031,166.32963 -0.56445,0.89551 3.71774,2.22521 -3.71774,2.25778 0.59701,0.85752 4.16278,-2.59427 v -1.04748 z"
         style="fill:#4c9084;fill-opacity:1"
         id="path854" />
      <path
         d="m 155.43564,169.05416 c 0,2.2632 -0.77068,3.44636 -2.32291,4.81948 l 0.47761,0.49932 c 1.76389,-1.43825 2.80051,-2.84393 2.80051,-5.3188 0,-2.47487 -1.03662,-3.88056 -2.80051,-5.31881 l -0.47761,0.49932 c 1.56308,1.3894 2.32291,2.54543 2.32291,4.81949 z"
         style="font-style:normal;font-variant:normal;font-weight:normal;font-stretch:normal;font-size:10.58333302px;font-family:'FiraCode Nerd Font';-inkscape-font-specification:'FiraCode Nerd Font, Normal';font-variant-ligatures:normal;font-variant-caps:normal;font-variant-numeric:normal;font-feature-settings:normal;text-align:start;writing-mode:lr-tb;text-anchor:start;fill:#1a1a1a"
         id="path856" />
      <path
         d="m 160.9878,167.30655 c -0.49389,0 -0.8738,0.38534 -0.8738,0.8738 0,0.48304 0.37991,0.88466 0.8738,0.88466 0.50474,0 0.88466,-0.40162 0.88466,-0.88466 0,-0.48846 -0.37992,-0.8738 -0.88466,-0.8738 z m 0,3.7503 c -0.49389,0 -0.8738,0.39077 -0.8738,0.8738 0,0.29308 0.13568,0.56987 0.3582,0.72184 l -0.52102,2.15466 h 0.82495 l 0.87923,-2.01898 c 0.16282,-0.34192 0.2171,-0.59158 0.2171,-0.86294 0,-0.47761 -0.37992,-0.86838 -0.88466,-0.86838 z"
         style="font-style:normal;font-variant:normal;font-weight:normal;font-stretch:normal;font-size:10.58333302px;font-family:'FiraCode Nerd Font';-inkscape-font-specification:'FiraCode Nerd Font, Normal';font-variant-ligatures:normal;font-variant-caps:normal;font-variant-numeric:normal;font-feature-settings:normal;text-align:start;writing-mode:lr-tb;text-anchor:start;fill:#1a1a1a"
         id="path858" />
    </g>
    <flowRoot
       xml:space="preserve"
       id="flowRoot4522"
       style="font-style:normal;font-weight:normal;font-size:40px;line-height:1.25;font-family:sans-serif;letter-spacing:0px;word-spacing:0px;fill:#000000;fill-opacity:1;stroke:none"
       transform="scale(0.26458333)"><flowRegion
         id="flowRegion4524"><rect
           id="rect4526"
           width="85.357887"
           height="70.205605"
           x="190.41376"
           y="570.47131" /></flowRegion><flowPara
         id="flowPara4528" /></flowRoot>  </g>
</svg>
